<svg width="120" height="120" viewBox="0 0 120 120" fill="none" xmlns="http://www.w3.org/2000/svg">
<path d="M67.1631 119.618C65.5993 119.344 63.9793 118.601 63.0606 117.78C62.4369 117.126 62.081 116.261 62.0631 115.358C62.0631 114.439 62.5318 113.149 63.2743 111.863C63.7243 111.139 64.0768 110.359 64.3281 109.538C64.4856 108.971 64.8156 108.053 65.0706 107.468L65.5206 106.395L65.6368 99.2288C65.6968 95.265 65.8131 91.5938 65.9106 91.0238C66.1656 89.3812 66.5931 87.78 67.1593 86.22L67.5906 85.185L66.9643 84.8138C66.3981 84.4613 65.9293 83.9738 64.0731 81.765C61.7893 79.0687 58.7818 77.5837 54.5218 77.0775C53.1343 76.9425 51.7281 76.8413 50.3218 76.785C44.0706 76.4925 40.4968 75.1838 37.2756 72.0188C34.8718 69.6563 33.6231 66.9 33.1168 62.8388C32.4343 57.3488 31.6731 54.5363 30.2668 52.2525C29.9202 51.6885 29.5209 51.1586 29.0743 50.67L28.5081 50.1038L27.2593 50.9063C26.5768 51.3563 25.6168 51.9225 25.1481 52.1775C23.5843 53.0363 22.0993 53.9925 20.6743 55.0275C17.1793 57.5663 13.3693 60.75 11.2806 62.8388C10.3431 63.7763 9.85557 64.185 9.63807 64.1475C8.21307 63.9338 9.30432 57.7612 11.6293 53.1113C14.5993 47.115 19.5981 41.5875 25.3806 37.8563C30.1281 34.7887 37.8043 30.57 41.3556 29.085C47.6631 26.4488 55.8268 23.595 61.4143 22.0725C62.5881 21.7388 63.3081 21.4463 63.7956 21.1163C64.8906 20.355 65.9631 19.9838 67.1931 19.965C68.2281 19.9463 68.3256 19.9275 69.3231 19.26C70.4968 18.4988 70.8456 18.4575 72.0193 18.87L72.7806 19.1438L73.7181 18.4988L74.6556 17.8725L76.0018 17.8913C77.0368 17.91 77.5056 17.8725 77.9556 17.6775C78.5218 17.4225 78.5406 17.385 78.6981 16.4475C79.0506 14.415 79.0881 13.3988 78.8743 12.1688C78.6006 10.5488 78.5631 4.26 78.8368 3.02625C79.1293 1.69875 79.3243 1.425 80.3218 0.9375C81.8068 0.21375 82.9206 0 85.4781 0C88.6018 0 90.1843 0.43125 91.3581 1.56375C92.4118 2.58 92.5881 4.96125 92.0406 10.5488C91.7068 13.77 91.6693 14.67 91.7668 16.7775C91.8043 18.1238 91.9018 19.395 91.9431 19.5713C92.0218 19.905 92.1006 19.9238 93.2331 19.9425C94.3468 19.9613 94.5418 20.0213 95.5956 20.5688C96.6118 21.0975 97.3731 21.7425 97.5306 22.2113C97.5493 22.3088 97.7256 22.3088 98.0368 22.2113C98.6406 22.035 99.1693 22.23 99.6006 22.7588C99.8556 23.0925 100.009 23.1488 100.598 23.1488C101.401 23.1488 101.693 23.3438 102.357 24.3225C102.667 24.7618 103.093 25.1069 103.587 25.32C104.682 25.8675 106.167 27.39 106.733 28.6013C107.611 30.3975 107.787 32.4862 107.239 34.3612C107.044 35.0662 107.044 35.085 107.453 35.7675C108.312 37.2337 108.627 39.03 108.274 40.5525L108.079 41.4525L108.664 42.0375C111.574 44.9475 111.143 49.695 107.592 53.9325C107.195 54.4165 106.86 54.9481 106.594 55.515C105.912 57.33 105.128 58.6013 104.116 59.655L103.081 60.7088H102.027C100.973 60.7088 99.4881 60.3563 98.5881 59.8875C98.2168 59.6925 98.1981 59.6925 98.2768 59.925C98.5131 60.7838 99.0981 64.2788 99.2931 66.2138C99.6043 69.1838 99.5068 73.5 99.0981 75.3563C98.7993 76.7311 98.2989 78.0541 97.6131 79.2825C97.2231 79.9088 97.2043 80.0438 97.2793 80.805C97.3956 81.8775 97.1443 83.6775 96.7131 84.8663C96.1843 86.2538 95.9893 86.8988 95.8731 87.6C95.7756 88.2038 95.7756 88.2038 96.2068 88.2038C96.7731 88.2038 97.0843 88.5375 97.0843 89.2012C97.0843 89.4938 96.8293 91.0763 96.5181 92.6963C95.6593 97.2488 95.5993 97.755 95.5993 102.169C95.5806 106.721 95.5806 106.68 96.6156 107.363L98.9406 108.866C100.941 110.194 103.083 111.294 105.327 112.148C108.589 113.438 109.039 113.768 109.039 114.863C109.039 115.35 108.942 115.526 108.533 115.916C107.284 117.128 104.821 117.401 99.8593 116.873C97.2813 116.631 94.6936 116.507 92.1043 116.501C85.2681 116.404 84.2706 116.168 83.3743 114.469C82.8681 113.494 82.9656 112.223 83.6668 110.134C83.9781 109.215 84.2518 108.278 84.4881 107.321C84.9568 105.056 84.6456 102.36 83.5506 99.315L82.6131 96.7163C81.6943 94.08 81.1881 89.2538 81.7356 88.1625C81.8331 87.9488 82.0093 87.9075 82.4781 87.9263L83.0631 87.9863L83.5506 86.97C83.9218 86.1675 84.3306 85.6425 85.4443 84.5288L86.8693 83.1038L86.7906 82.185C86.7306 81.3075 85.5793 77.0475 85.4218 77.0663C85.3618 77.0663 85.0506 77.4975 84.6981 78.0413C83.8393 79.3313 81.9456 81.3225 80.8693 82.0463C80.4006 82.3575 80.0106 82.7288 80.0106 82.8488C79.9918 83.3775 79.5418 84.4125 78.9943 85.1325C78.4656 85.8375 78.4281 85.9538 78.5068 86.5763C78.6418 87.495 78.3493 90.4425 78.0006 91.9875C77.6844 93.1347 77.2522 94.2467 76.7106 95.3063C75.3643 98.1 74.3481 100.598 74.0931 101.753C73.9089 102.865 73.7912 103.986 73.7406 105.113C73.6806 106.44 73.5456 107.73 73.4481 108.004C73.3131 108.375 73.3131 108.668 73.4293 109.234C73.5268 109.643 73.5868 110.561 73.5643 111.285C73.5456 112.283 73.6243 112.928 73.9168 114.098C74.4231 116.089 74.5206 117.341 74.2881 118.084C74.1306 118.553 73.9768 118.729 73.4481 118.984C72.2743 119.588 68.9556 119.921 67.1593 119.61L67.1631 119.618ZM71.9068 118.016C72.5893 117.821 73.1781 117.236 73.1781 116.708C73.1781 116.471 72.9831 115.789 72.7468 115.185C72.2781 114.034 71.4756 110.985 71.4756 110.479C71.4756 110.224 71.4943 110.205 71.8843 110.419L72.3156 110.655V110.108C72.253 109.603 72.1412 109.105 71.9818 108.623C71.6106 107.509 71.5731 107.49 69.2068 107.351L67.6056 107.273L67.0206 107.839C66.6989 108.17 66.417 108.537 66.1806 108.934C65.9256 109.44 65.8281 110.205 65.9856 110.378C66.0231 110.438 66.4168 110.378 66.8443 110.28C67.0981 110.204 67.3599 110.159 67.6243 110.145C67.6243 110.164 67.1931 110.516 66.6493 110.888C64.3056 112.646 63.4843 113.719 63.4843 115.088C63.4843 116.513 64.8306 117.626 66.9418 117.96C68.3856 118.174 71.1981 118.234 71.9031 118.02L71.9068 118.016ZM103.684 115.691C104.269 114.986 104.191 114.266 103.448 113.445C103.017 113.014 102.529 112.643 101.982 112.35C101.434 112.058 100.887 111.724 100.339 111.375C99.3491 110.733 98.3319 110.134 97.2906 109.579C96.3906 109.091 95.5131 108.581 94.6543 108.038L94.3018 107.764V102.394C94.3018 97.1025 94.2831 97.0238 94.0093 97.1025C92.6406 97.4738 90.3756 97.65 87.5068 97.59L84.4018 97.5525L84.8518 98.6475C85.6918 100.718 86.1231 103.493 86.1231 106.676C86.1231 107.869 86.0443 108.296 85.7518 109.136C85.5943 109.545 85.4593 109.958 85.3206 110.366C85.2606 110.543 85.4781 110.678 86.2768 110.914C86.8618 111.09 87.7206 111.266 88.2118 111.323L89.1118 111.42L89.0143 112.32C88.9168 113.336 89.0331 114.409 89.2881 114.743C89.4456 114.938 90.0306 115.016 92.7456 115.133C94.7968 115.23 97.0243 115.444 98.7793 115.699C100.302 115.935 101.944 116.13 102.432 116.13C103.253 116.149 103.332 116.111 103.681 115.699L103.684 115.691ZM72.4168 106.553C72.4956 106.493 72.6118 105.439 72.6531 104.19C72.8106 100.695 72.9456 100.185 74.7043 96.24C76.1481 93.0188 76.9131 90.0113 76.8531 87.8813L76.8156 86.61L76.2681 87.1388C75.1356 88.2713 75.9156 86.4938 77.2656 84.9113C78.2818 83.7 78.6343 83.0363 78.7881 81.9638C78.8668 81.5325 79.0243 81.3188 79.6881 80.8125C82.1716 78.9364 84.0852 76.4074 85.2156 73.5075C85.4893 72.8025 86.1906 70.4025 86.7793 68.175C87.8743 64.0538 88.4593 62.2763 88.9881 61.515C89.1831 61.2225 89.2618 61.1625 89.2243 61.3575C88.9411 62.4049 88.7195 63.468 88.5606 64.5413C88.4031 65.4975 88.1106 67.3725 87.9156 68.6813C87.5443 71.3588 87.1543 73.0763 86.6256 74.4038L86.2731 75.3037L87.2106 77.7262C88.1856 80.205 88.6356 82.005 88.7143 83.7413L88.7743 84.7163L88.0131 84.8738C87.0083 85.0516 86.1117 85.6121 85.5118 86.4375C84.8481 87.3938 84.4768 88.1775 84.6531 88.35C84.7318 88.4288 85.6881 88.605 86.7831 88.74C88.4818 88.935 89.1268 88.935 91.3731 88.8C92.3481 88.7625 93.3081 88.665 94.2643 88.5263C94.4781 88.4475 94.6956 88.02 95.0443 86.9062C95.8468 84.3488 96.0006 83.4488 95.9031 81.6525L95.8243 80.07L96.2331 79.5413C97.1893 78.33 97.9318 76.1438 98.2431 73.5825C98.6143 70.4588 97.9318 63.915 96.6606 58.29C96.0568 55.6125 95.8018 54.0113 95.8018 52.8413V51.8063L94.8456 51.9038C91.4068 52.275 87.2481 52.1775 84.7093 51.6488C83.3218 51.375 79.8268 50.34 79.0656 50.0063L78.4618 49.7325L78.3831 50.415C78.3231 50.7863 78.2668 51.1575 78.1881 51.5475C78.0718 51.9562 78.1093 52.0537 78.8331 52.7588C79.7331 53.6775 80.0068 54.1463 80.0068 54.7688C80.0068 55.1588 79.7931 55.4738 78.6981 56.6063C77.913 57.444 77.0419 58.1969 76.0993 58.8525L74.8281 59.7113L74.2806 61.605C72.3268 68.5387 71.9556 74.8463 73.2456 79.3575L73.5568 80.49L72.9306 81.27C70.5868 84.2175 69.1993 86.4638 68.9856 87.7162C68.8606 88.333 68.7168 88.9458 68.5543 89.5538C68.0481 91.4888 67.6543 94.32 67.4818 97.3875C67.3616 99.9555 67.1928 102.521 66.9756 105.083L66.8781 105.844L67.8531 106.136C68.4006 106.313 69.2218 106.508 69.6906 106.586C70.5681 106.721 72.1918 106.684 72.4431 106.549L72.4168 106.553ZM91.3806 95.8088C92.9031 95.7113 94.2906 95.475 94.5643 95.2425C94.6806 95.1637 94.8193 94.755 94.8568 94.3425L94.9543 93.6L93.7431 93.8737C92.7868 94.0688 91.8306 94.185 90.8706 94.2638C88.5643 94.3613 86.2431 94.3013 83.9556 94.0688C83.1943 93.9525 83.1943 93.9525 83.4268 94.9463C83.6218 95.6888 83.6631 95.7262 85.6543 95.865C86.9818 95.9813 88.8381 95.9625 91.3768 95.805L91.3806 95.8088ZM90.1093 92.4113C92.1006 92.235 94.5831 91.8075 95.0706 91.5525C95.2281 91.4738 95.3631 91.1813 95.4231 90.8475L95.5993 89.8125L95.6968 89.325L95.2093 89.4225C93.0418 89.8725 91.3993 90.0075 88.1181 90.0075C84.9156 90.0075 84.5443 89.9888 83.7043 89.6963C83.3815 89.5602 83.0378 89.4803 82.6881 89.46C82.5531 89.5387 82.5306 90.6525 82.6506 91.4325C82.7293 91.9013 82.8081 91.98 83.2768 92.115C84.7618 92.5238 87.2631 92.6213 90.1131 92.3888L90.1093 92.4113ZM53.8618 74.7938C58.8606 73.35 65.4043 69.1088 70.7556 63.7988C72.4956 62.0588 72.7093 61.8263 72.9418 61.0463L73.2531 60.0488C73.2906 59.97 72.9793 59.835 72.5706 59.7375C71.4981 59.4825 70.6768 58.86 70.6768 58.2938C70.6768 57.96 70.4818 57.63 69.9156 57.0225C68.9968 55.9875 68.7643 55.5375 68.6668 54.5438L68.5881 53.7413L67.4931 52.9613C66.8668 52.5112 64.6806 51.3 62.3556 50.13C60.5853 49.2664 58.8525 48.328 57.1618 47.3175C55.2081 46.0088 53.8993 44.445 53.1568 42.5925C53.0218 42.2213 52.8456 41.91 52.7856 41.91C52.6281 41.91 48.2331 46.1475 46.3581 48.1388C41.7306 53.0213 38.5468 57.2588 36.5331 61.185C36.0268 62.16 35.4793 63.315 35.3218 63.7425L35.0293 64.5225L35.3818 65.8313C35.5956 66.5363 36.0456 67.6875 36.3981 68.37C37.6281 70.7925 39.0943 72.255 41.5168 73.4475C44.1156 74.7375 46.4181 75.1875 50.2656 75.1275C52.3356 75.1088 52.9431 75.0488 53.8581 74.775L53.8618 74.7938ZM14.4081 57.6638C17.6893 54.7538 22.2193 51.57 27.7693 48.27C31.4031 46.1025 45.4468 39.0713 51.9118 36.1988C53.0856 35.67 54.1393 35.1825 54.2556 35.1263C54.3718 35.0475 54.7056 34.2075 55.0168 33.27C56.3856 28.935 57.0681 28.0763 59.5468 27.51C59.8581 27.4313 59.9368 27.3338 59.9368 27.0225C59.9368 26.4563 60.3268 25.1475 60.6606 24.5625C60.9156 24.1125 60.9156 24.0938 60.6981 24.1538C60.5631 24.1913 59.7418 24.4275 58.8831 24.6825C46.9693 28.1213 36.5593 32.6888 27.5743 38.3925C17.9856 44.4863 12.4581 51.7912 10.8568 60.54L10.7406 61.185L11.9143 60.0337C12.5406 59.3887 13.6731 58.335 14.4156 57.69L14.4081 57.6638ZM102.788 59.325C103.744 58.8375 105.229 56.5913 105.777 54.8138C105.934 54.1875 106.246 53.6025 106.696 53.115C108.139 51.5138 109.332 48.6038 109.351 46.6125C109.351 43.5075 107.592 42.315 105.034 43.6425C104.701 43.8 104.431 43.9162 104.389 43.8787C104.254 43.7438 104.974 43.0387 105.856 42.4912C107.007 41.73 107.224 41.28 107.224 39.66C107.241 38.3506 106.852 37.068 106.111 35.9888C105.758 35.46 105.623 35.1112 105.679 34.8937L106.032 33.585C106.519 31.845 106.343 29.8538 105.582 28.5863C104.449 26.6738 103.062 25.7363 101.127 25.5788L99.9943 25.5L100.658 26.2425C102.631 28.3725 103.587 31.0463 103.197 33.3338C103.002 34.5075 102.826 34.74 101.693 35.19L101.029 35.4638L101.108 36.3638C101.243 37.83 100.992 38.9025 100.054 40.875C99.5856 41.8725 99.2331 42.7688 99.2743 42.8663C99.3906 43.2 100.681 43.8225 101.697 44.0775L102.694 44.3138L102.068 44.5275C101.247 44.7825 101.071 45.1538 101.071 46.5C101.071 47.73 101.247 48.24 102.143 49.5863C102.552 50.1713 102.826 50.7788 102.867 51.1275C102.946 51.675 102.927 51.7125 102.477 51.87C101.967 52.0131 101.442 52.0987 100.913 52.125C99.0756 52.2413 98.9406 52.3013 98.1193 53.0813C97.3768 53.7863 97.3581 53.8238 97.3581 54.6038C97.3581 55.6763 97.7668 57.8475 98.0218 58.14C98.3556 58.4925 100.208 59.4113 100.932 59.5463C101.556 59.703 102.216 59.627 102.788 59.3325V59.325ZM75.7356 57.8625C76.9281 56.925 77.8656 55.9875 78.3906 55.185C78.7243 54.6975 78.7431 54.6 78.5856 54.1875C78.3118 53.5613 76.5156 51.9413 75.5181 51.4538C74.8534 51.156 74.1503 50.9527 73.4293 50.85L72.1993 50.6925L71.4381 49.7363C69.8556 47.7825 68.9781 46.26 67.7256 43.3088C66.6306 40.8075 65.6743 39.345 64.1518 37.8975C63.5256 37.3125 63.0793 36.825 63.1168 36.825C63.1956 36.825 63.9381 37.1963 64.7968 37.6463C66.2218 38.4075 66.3981 38.4675 67.0431 38.37C69.3681 38.0962 71.4193 35.4225 72.1618 31.6725C72.3756 30.6187 72.8068 29.5425 73.2568 28.8975C73.2756 28.8788 74.1756 29.4638 75.2293 30.225C77.9068 32.1188 78.4918 32.4113 80.0143 32.4712C81.0118 32.5088 81.5781 32.4338 83.3743 32.0025C87.2031 31.065 91.3431 30.6937 93.8631 31.0275C95.2881 31.2225 97.3393 31.8487 98.8618 32.5687C100.366 33.2738 100.658 33.3113 101.146 32.88C101.554 32.5275 101.554 32.4712 101.554 31.1625C101.536 29.2275 100.831 27.1388 99.7581 25.89C99.2106 25.245 97.6693 24.1913 96.1431 23.3888C95.6005 23.101 95.0605 22.8085 94.5231 22.5113C93.7993 22.08 92.9818 22.14 90.7543 22.725C88.1743 23.3888 87.4918 23.3888 84.5443 22.6275C82.0431 22.0013 81.8893 21.9825 79.4256 22.3725C78.1168 22.5675 74.8356 22.4513 73.7406 22.1588C73.1931 22.0013 72.6456 21.8475 72.1206 21.6525C71.1643 21.2813 69.5031 21.2213 67.9993 21.495C65.0106 22.0238 62.7456 23.6438 61.9243 25.8488C61.4931 26.9625 61.5531 27.4913 62.1193 27.84C63.0193 28.4063 64.2081 29.9513 64.2081 30.555C64.2081 30.5925 63.9156 30.3413 63.5818 29.9888C62.7418 29.1113 61.9806 28.7175 61.0806 28.7175C60.4983 28.7337 59.932 28.9122 59.4457 29.2328C58.9594 29.5535 58.5723 30.0036 58.3281 30.5325C58.0653 31.2225 57.8436 31.9275 57.6643 32.6438C57.1168 34.635 56.6293 35.6925 55.5943 37.0988C54.6756 38.37 54.5406 38.9363 54.8706 40.3613C55.6918 43.9538 57.1168 45.4012 63.0718 48.78C66.1956 50.5575 67.7968 51.555 68.9706 52.4325C69.8706 53.0963 69.8893 53.1375 69.8106 53.6437C69.6343 54.8175 70.3768 56.085 71.8431 57.12C72.2143 57.375 72.4468 57.6488 72.4468 57.8438C72.4468 58.1963 73.4443 58.6838 74.1643 58.6838C74.5731 58.6838 74.8881 58.5075 75.7281 57.8625H75.7356ZM99.8181 51.2775C102.083 51.3563 102.199 51.18 100.992 49.7738C99.7206 48.3075 99.3718 47.1188 99.8406 45.81L100.036 45.3037L99.2331 44.9137C98.9593 44.7788 98.6856 44.64 98.4118 44.5425C98.2768 45.0713 98.1381 45.5775 98.0218 46.1063C97.7293 47.2988 97.3768 50.385 97.3581 51.6938C97.3581 51.81 97.5531 51.7725 97.8868 51.5588C98.3556 51.285 98.5918 51.2475 99.8218 51.285L99.8181 51.2775ZM92.2206 51.1613C93.5893 51.0825 94.9956 50.985 95.3668 50.925L96.0493 50.8275L96.1281 48.5813C96.2443 45.3788 96.7131 43.485 98.1006 40.455C99.0756 38.3062 99.5068 36.4312 99.2931 35.025C99.2143 34.4212 99.1768 34.38 98.3556 34.0275C96.8518 33.4304 95.2857 33.004 93.6868 32.7563C92.1456 32.5425 87.6118 32.6587 85.9131 32.9925C85.2081 33.1087 83.9218 33.3825 83.0631 33.5963C80.9331 34.0838 79.8006 34.0275 78.1806 33.3225C76.5793 32.6175 75.5631 31.9763 74.6068 31.0763C73.8456 30.3713 73.7668 30.3337 73.5718 30.57C73.4143 30.7463 73.3356 31.275 73.2793 32.4075C73.2193 34.1475 72.9456 35.0625 72.1843 36.2925C72.0152 36.5456 71.8708 36.8143 71.7531 37.095C71.7531 37.155 72.3381 37.8375 73.0618 38.58C75.5631 41.1787 76.7931 41.8425 78.7656 41.7038C79.4106 41.6437 79.8606 41.6663 79.8606 41.7413C79.8606 41.8988 78.5893 42.8925 78.0643 43.1663C77.8093 43.3013 77.7531 43.44 77.7906 43.7325L78.1018 45.7838C78.2781 46.9575 78.4131 47.5013 78.5893 47.6588C79.0581 48.0488 81.4806 49.3013 83.0031 49.9238C84.9943 50.7263 86.0893 51.0188 87.6118 51.1538C89.4868 51.3113 89.5243 51.3113 92.2206 51.1538V51.1613ZM76.0693 49.0125C76.1068 48.9525 75.9718 47.82 75.7168 46.5113C75.4056 44.7338 75.2293 44.0888 75.0343 43.9125C74.8993 43.7963 74.1756 43.2863 73.4518 42.7613C72.5009 42.0775 71.5999 41.3268 70.7556 40.515L69.4093 39.1875L68.6856 39.5588L67.9243 39.9675C67.9884 40.2726 68.0931 40.5677 68.2356 40.845C68.4493 41.3138 68.8806 42.465 69.1918 43.4025C70.0131 45.8438 70.6581 47.0175 72.2781 49.1438L72.8818 49.9463L74.0331 50.1225C74.6781 50.22 75.3231 50.3587 75.4993 50.415C75.7731 50.5312 75.8106 50.475 75.8893 49.8488C75.9268 49.575 75.9868 49.2825 76.0656 49.0088L76.0693 49.0125ZM100.816 24.7163C101.813 24.6188 101.989 24.48 101.558 24.0338C101.284 23.76 100.658 23.7413 100.152 23.9738C99.8181 24.1313 99.7431 24.09 99.2143 23.5238C98.6668 22.92 98.6293 22.8975 97.9431 22.9763C97.3168 23.055 97.2193 23.0363 97.1406 22.7813C96.8967 22.3624 96.5936 21.9809 96.2406 21.6488C95.797 21.1447 95.2424 20.7506 94.6206 20.4975C93.4093 20.0288 92.7268 20.0888 91.5718 20.7338C88.2306 22.5488 88.3693 22.53 85.1443 21.7088C82.1368 20.9475 79.8906 20.1675 79.1668 19.6763C78.5631 19.2675 77.2731 18.8175 76.1968 18.6788C75.3943 18.5625 74.8881 18.7388 74.1268 19.3613L73.7181 19.695L74.0893 20.34C74.5956 21.24 74.5393 21.2963 73.7781 20.6325C72.9568 19.95 71.9818 19.4813 71.3556 19.4588C70.9056 19.4588 69.5781 20.0438 69.4206 20.2988C69.3606 20.3775 69.7731 20.475 70.3206 20.5125C70.8868 20.5725 71.6668 20.7675 72.1956 20.9813C73.5643 21.5663 74.2656 21.7613 75.5143 21.8813C76.8831 22.0163 79.3618 21.8625 79.6543 21.6263C79.8118 21.4913 80.2393 21.4688 81.1393 21.5475C82.3318 21.6263 82.8193 21.7425 85.6506 22.5038C87.2931 22.9538 88.4443 22.9125 90.3981 22.3875C91.2981 22.1325 92.4306 21.8813 92.8993 21.8213C93.7018 21.7425 93.8556 21.7838 95.1081 22.35C97.0993 23.25 98.1568 23.8163 98.7418 24.3413C99.3268 24.8475 99.4056 24.8475 100.812 24.7313L100.816 24.7163ZM89.6818 21.3L90.8743 20.6738L90.8368 19.4625C90.8181 18.6225 90.7768 17.8013 90.7393 16.9838L90.6418 15.735L89.4493 16.6538C88.7443 17.2013 88.0618 17.61 87.7693 17.67C86.9106 17.8275 82.6731 17.67 82.2793 17.4563C81.7548 17.0688 81.2642 16.6372 80.8131 16.1663L79.7181 15.0525L79.6993 15.7163C79.6993 16.0688 79.6618 16.6725 79.5831 17.0438C79.4856 17.7488 79.4856 17.7675 80.2468 18.7238C80.6556 19.2525 80.9893 19.7213 80.9893 19.7775C80.9893 20.1488 86.6331 21.9075 87.9043 21.9263C88.3131 21.9263 88.8231 21.75 89.6818 21.3ZM87.4168 16.8638C88.8231 16.59 89.5056 15.5738 90.0343 12.9975C90.5818 10.2225 90.8556 5.86875 90.6006 4.0125C90.3643 2.3325 88.4893 1.59 84.9156 1.70625C82.6881 1.785 81.7693 1.99875 81.0081 2.64375C80.5393 3.03375 80.5393 3.075 80.3256 4.9275C79.9356 8.4825 80.5206 13.5413 81.5368 15.435C82.0243 16.3538 82.4556 16.6838 83.3518 16.8413C84.3681 17.0175 86.5356 17.0175 87.4131 16.86L87.4168 16.8638Z" fill="black"/>
</svg>
